<svg width="625" height="724" viewBox="0 0 625 724" fill="none" xmlns="http://www.w3.org/2000/svg">
<path fill-rule="evenodd" clip-rule="evenodd" d="M358.302 52.4996C385.493 62.188 411.291 82.8917 439.077 79.5575C499.261 72.3355 572.869 -48.262 614.148 21.7985C653.426 88.4629 575.003 189.959 554.368 275.235C543.648 319.534 522.611 358.203 521.27 405.624C519.528 467.228 562.088 528.311 545.633 584.143C530.714 634.762 481.516 624.695 449.706 648.441C418.229 671.938 393.063 725.145 358.302 723.981C323.469 722.815 294.414 679.845 268.732 642.382C246.334 609.709 248.199 539.638 219.889 522.071C150.439 478.977 15.046 592.689 0.94943 476.219C-13.4034 357.632 138.919 373.195 191.291 285.787C212.004 251.218 188.512 189.363 199.468 144.896C211.842 94.6742 226.159 33.5611 258 15.0385C290.664 -3.96284 324.364 40.4072 358.302 52.4996Z" fill="url(#paint0_linear_640_8)"/>
<defs>
<linearGradient id="paint0_linear_640_8" x1="312.5" y1="0" x2="312.5" y2="724" gradientUnits="userSpaceOnUse">
<stop stop-color="#322692"/>
<stop offset="1" stop-color="#AE0BA8"/>
</linearGradient>
</defs>
</svg>
